<svg xmlns="http://www.w3.org/2000/svg" width="61" height="60" viewBox="0 0 61 60" fill="none"><path d="M10.717 10C10.717 8.89543 11.6125 8 12.717 8H20.717V18H10.717V10Z" fill="#0066DA"/><rect x="10.717" y="18" width="10" height="14" fill="#2684FC"/><path d="M10.717 32H20.717V42H12.717C11.6125 42 10.717 41.1046 10.717 40V32Z" fill="#00832D"/><rect x="20.717" y="8" width="20" height="10" fill="#FBBC04"/><path d="M50.717 18H40.717V8L50.717 17.5V18Z" fill="#EA4335"/><path d="M50.717 18H40.717V32H25.217L20.717 36.5V48.6201C20.717 49.8674 22.225 50.492 23.107 49.6101L30.717 42H48.717C49.8216 42 50.717 41.1046 50.717 40V18Z" fill="#00AC47"/></svg>
