<svg width="36" height="36" viewBox="0 0 36 36" xmlns="http://www.w3.org/2000/svg" xmlns:xlink="http://www.w3.org/1999/xlink"><defs><path id="a" d="M0 0h36v36H0z"/></defs><g fill="none" fill-rule="evenodd"><mask id="b" fill="#fff"><use xlink:href="#a"/></mask><g mask="url(#b)" fill-rule="nonzero"><path d="M22.708 11.413l1.105.02 3.001-3.001.147-1.271A13.437 13.437 0 0018 3.746c-6.223 0-11.471 4.232-13.027 9.97C5.3 13.489 6 13.658 6 13.658l6-.987s.311-.51.463-.478a7.485 7.485 0 0110.245-.78z" fill="#EA4335"/><path d="M31.031 13.723A13.52 13.52 0 0026.96 7.16l-4.253 4.252a7.49 7.49 0 012.794 5.835v.75a3.754 3.754 0 013.75 3.75 3.754 3.754 0 01-3.75 3.75H18l-.75.754v4.5l.75.746h7.5c5.376 0 9.75-4.374 9.75-9.75a9.743 9.743 0 00-4.219-8.023v-.001z" fill="#4285F4"/><path d="M10.5 31.496h7.494v-6H10.5c-.533 0-1.06-.115-1.545-.337l-1.08.332-3.004 3.003-.262 1.015a9.702 9.702 0 005.891 1.987z" fill="#34A853"/><path d="M10.5 11.996c-5.376 0-9.75 4.375-9.75 9.75 0 3.05 1.43 5.925 3.862 7.765l4.349-4.348a3.753 3.753 0 01-2.211-3.417 3.754 3.754 0 013.75-3.75c1.519 0 2.828.91 3.416 2.21l4.348-4.347a9.735 9.735 0 00-7.764-3.863z" fill="#FBBC05"/></g></g></svg>
 
